<svg width="78" height="40" viewBox="0 0 78 40" fill="none" xmlns="http://www.w3.org/2000/svg">
<g clip-path="url(#clip0_2_10)">
<path d="M5.89407 11.529V5.76492V0H0V5.76492V11.529V17.2938V23.0605V28.8238H5.89407V23.0605V17.2938H11.79V11.529H5.89407Z" fill="#E73B3B"/>
<path d="M5.89404 0.000244141V5.76508V11.5292H11.79V5.76508V0.000244141H5.89404Z" fill="#88CBD7"/>
<path d="M5.89404 23.0602V28.8244H11.79V23.0602V17.2936H5.89404V23.0602Z" fill="#88CBD7"/>
<path d="M23.5812 5.7651V0H17.6855H11.7896V5.7651V11.529V17.2941V23.06V28.8238H17.6855V23.06V17.2941H23.5812V11.529H17.6855V5.7651H23.5812Z" fill="#3C5976"/>
<path d="M29.475 5.76507H23.5811V0.00128174H29.475V5.76507Z" fill="#8FC05B"/>
<path d="M29.475 17.2941H23.5811V11.5292H29.475V17.2941Z" fill="#8FC05B"/>
<path d="M17.6855 17.2936V23.0605H23.5815H29.4757V17.2936H23.5815H17.6855Z" fill="#FECC58"/>
<path d="M23.5812 5.76508H17.6855V11.529H23.5812H29.4746V5.76508H23.5812Z" fill="#FECC58"/>
<path d="M23.5812 23.0602H17.6855V28.8244H23.5812H29.4746V23.0602H23.5812Z" fill="#8FC05B"/>
<path d="M0.659336 37.4768C0.87551 37.6476 1.14226 37.7308 1.46657 37.7308C1.65111 37.7308 1.81474 37.6973 1.95504 37.6276C2.0982 37.5582 2.21733 37.4651 2.31518 37.3451C2.41384 37.226 2.48587 37.0878 2.53582 36.927C2.58658 36.767 2.61044 36.5973 2.61044 36.4158C2.61044 36.0257 2.51643 35.7088 2.32698 35.4723C2.1369 35.2348 1.87363 35.1165 1.53565 35.1165C1.3705 35.1165 1.21063 35.149 1.063 35.2105C0.912418 35.2726 0.779532 35.3538 0.659336 35.4588V37.4768ZM1.10169 34.6504C1.26711 34.561 1.45451 34.5195 1.67336 34.5195C1.92618 34.5195 2.15155 34.5656 2.35289 34.6631C2.55236 34.7579 2.72403 34.8915 2.86272 35.0576C3.00204 35.2265 3.10642 35.4252 3.17952 35.652C3.25226 35.8813 3.28658 36.1286 3.28658 36.3968C3.28658 36.667 3.24306 36.9181 3.15066 37.15C3.06218 37.3829 2.93654 37.5854 2.77041 37.7559C2.60964 37.9266 2.41384 38.0612 2.18667 38.1577C1.9613 38.2563 1.71027 38.3085 1.44325 38.3085C1.33547 38.3085 1.21063 38.2977 1.05746 38.2842C0.907771 38.2681 0.776583 38.2453 0.659336 38.2128V40H0V34.6196L0.659336 34.5195V34.9618C0.792311 34.8436 0.93735 34.7399 1.10169 34.6504Z" fill="#E73B3B"/>
<path d="M4.65967 38.1895V32.9602L5.31981 32.8591V38.1895H4.65967Z" fill="#E73B3B"/>
<path d="M8.83305 36.4215C8.29936 36.4882 7.91875 36.584 7.69632 36.7048C7.47559 36.8241 7.36853 36.9966 7.36853 37.2124C7.36853 37.3732 7.42305 37.5032 7.53377 37.6079C7.65021 37.7118 7.80437 37.7633 8.00571 37.7633C8.17264 37.7633 8.32501 37.7262 8.46737 37.654C8.60588 37.5826 8.73153 37.4925 8.83305 37.3832V36.4215ZM8.82652 37.8111C8.68881 37.969 8.53653 38.0948 8.37032 38.1777C8.20696 38.2652 8.02403 38.3078 7.82921 38.3078C7.6612 38.3078 7.50598 38.2798 7.36308 38.2291C7.22171 38.177 7.09972 38.1073 6.99633 38.0152C6.89293 37.9266 6.81367 37.8193 6.75897 37.6947C6.70267 37.5728 6.67676 37.4382 6.67676 37.2928C6.67676 37.131 6.70741 36.9803 6.77569 36.8359C6.8411 36.6913 6.95397 36.5623 7.12019 36.4483C7.28274 36.3357 7.50151 36.2425 7.78211 36.1658C8.06013 36.0928 8.41375 36.0432 8.83305 36.0239V35.9203C8.83305 35.633 8.7721 35.428 8.64824 35.3026C8.52447 35.1797 8.31402 35.1165 8.01956 35.1165C7.83654 35.1165 7.63529 35.1544 7.42305 35.2284C7.20866 35.3007 7.02046 35.3947 6.85138 35.5038L6.72573 34.9314C6.88194 34.8221 7.08408 34.7264 7.33162 34.6452C7.5772 34.561 7.82921 34.5195 8.08864 34.5195C8.58542 34.5195 8.94565 34.6278 9.17281 34.8446C9.39819 35.0615 9.50338 35.4162 9.49238 35.9013V37.3903C9.49238 37.5357 9.5107 37.6304 9.55235 37.6747C9.59212 37.7182 9.69265 37.7397 9.85154 37.7397L9.81097 38.2762C9.5107 38.3024 9.29194 38.2699 9.14878 38.1777C9.00293 38.0874 8.90794 37.9637 8.85896 37.8111H8.82652Z" fill="#E73B3B"/>
<path d="M13.4256 38.1895V35.9545C13.4256 35.6438 13.3654 35.4316 13.2474 35.3115C13.1264 35.194 12.9361 35.1318 12.6786 35.1318C12.4901 35.1318 12.3119 35.1744 12.1457 35.2529C11.9758 35.3305 11.8391 35.4216 11.7357 35.5209V38.1895H11.0801V34.6199L11.7357 34.5195L11.7292 35.056C11.8983 34.8889 12.0857 34.7579 12.2852 34.6631C12.4928 34.5656 12.7005 34.5195 12.9113 34.5195C13.2814 34.5195 13.5703 34.627 13.7763 34.8403C13.9813 35.056 14.0847 35.3566 14.0847 35.7459V38.1895H13.4256Z" fill="#E73B3B"/>
<path d="M17.9824 36.0024V35.9481C17.9824 35.6863 17.9177 35.4759 17.7847 35.3161C17.6544 35.1571 17.444 35.0796 17.1568 35.0796C17.0034 35.0796 16.866 35.1058 16.7404 35.1571C16.6165 35.214 16.5085 35.2836 16.4244 35.3758C16.3359 35.4651 16.2694 35.5655 16.2176 35.6748C16.1687 35.7866 16.1347 35.9003 16.1179 36.0188L17.9824 36.0024ZM16.0876 36.5218C16.093 36.6969 16.1252 36.8558 16.1844 36.9994C16.2443 37.1448 16.3276 37.2667 16.432 37.3732C16.5362 37.4788 16.659 37.5611 16.805 37.6207C16.95 37.6785 17.1115 37.7093 17.2832 37.7093C17.4753 37.7093 17.6664 37.6857 17.8593 37.6361C18.0533 37.589 18.2231 37.5185 18.3737 37.421L18.4902 38.0126C18.3268 38.1101 18.142 38.1816 17.9334 38.232C17.7238 38.2816 17.502 38.308 17.2693 38.308C16.9932 38.308 16.7422 38.2609 16.5197 38.1706C16.2933 38.0805 16.1004 37.9511 15.9389 37.7858C15.7763 37.6207 15.6535 37.4246 15.563 37.1971C15.4724 36.9687 15.429 36.7204 15.429 36.4529C15.429 36.1642 15.4761 35.9003 15.5667 35.6655C15.6599 35.428 15.7847 35.2258 15.9443 35.056C16.1032 34.8854 16.2907 34.7517 16.5085 34.6595C16.7301 34.5649 16.9676 34.5187 17.2214 34.5187C17.6638 34.5187 18.0062 34.6452 18.2509 34.8953C18.4902 35.1472 18.6111 35.4833 18.6111 35.9085C18.6111 36.0071 18.6037 36.1053 18.5907 36.2064C18.576 36.3086 18.5566 36.3971 18.5307 36.4757H18.1504H17.7588C17.612 36.4757 17.4634 36.4764 17.3081 36.4819C16.95 36.4882 16.5409 36.4918 16.0876 36.4918V36.5218Z" fill="#E73B3B"/>
<path d="M22.0058 38.1524C21.7305 38.2538 21.4564 38.3088 21.1858 38.3088C20.8322 38.3088 20.5644 38.2174 20.3843 38.0412C20.2061 37.8662 20.1202 37.5854 20.1341 37.1981L20.1875 35.2094L19.5854 35.1697L19.6077 34.7678L20.2098 34.5881L20.2265 33.8207H20.8523L20.8311 34.6352H21.9643L21.942 35.2094H20.8034L20.75 37.2206C20.7398 37.5582 20.8987 37.7254 21.2282 37.7254C21.3392 37.7254 21.4481 37.7119 21.5617 37.6911C21.6742 37.6675 21.7786 37.635 21.8868 37.5926C21.8868 37.5926 21.8986 37.6207 21.9098 37.6765C21.9218 37.7362 21.9328 37.7986 21.9485 37.8726C21.9708 37.9555 21.9883 38.0487 22.0058 38.1524Z" fill="#E73B3B"/>
<path d="M25.8501 37.4768C26.0681 37.6476 26.3395 37.7308 26.6599 37.7308C26.8447 37.7308 27.0062 37.6973 27.1484 37.6276C27.2915 37.5582 27.4116 37.4651 27.5096 37.3451C27.6054 37.226 27.6776 37.0878 27.732 36.927C27.7792 36.767 27.8066 36.5973 27.8066 36.4158C27.8066 36.0257 27.7116 35.7088 27.5224 35.4723C27.3321 35.2348 27.068 35.1165 26.7311 35.1165C26.563 35.1165 26.4032 35.149 26.2573 35.2105C26.1087 35.2726 25.9765 35.3538 25.8501 35.4588V37.4768ZM26.299 34.6504C26.4604 34.561 26.6478 34.5195 26.8667 34.5195C27.1188 34.5195 27.347 34.5656 27.5454 34.6631C27.7486 34.7579 27.9166 34.8915 28.0579 35.0576C28.1964 35.2265 28.3008 35.4252 28.3729 35.652C28.443 35.8813 28.4799 36.1286 28.4799 36.3968C28.4799 36.667 28.4357 36.9181 28.3433 37.15C28.2545 37.3829 28.1292 37.5854 27.9666 37.7559C27.8049 37.9266 27.6072 38.0612 27.3792 38.1577C27.153 38.2563 26.9083 38.3085 26.6377 38.3085C26.5298 38.3085 26.4032 38.2977 26.2537 38.2842C26.1003 38.2681 25.9684 38.2453 25.8501 38.2128V40H25.1936V34.6196L25.8501 34.5195V34.9618C25.9831 34.8436 26.1335 34.7399 26.299 34.6504Z" fill="#3C5976"/>
<path d="M32.5402 36.4215C32.5402 36.2272 32.5153 36.0511 32.4663 35.8885C32.4119 35.7278 32.34 35.5852 32.2439 35.4669C32.1431 35.3487 32.0251 35.253 31.8866 35.1861C31.747 35.1201 31.5856 35.0858 31.4074 35.0858C31.2272 35.0858 31.0647 35.1193 30.9251 35.1816C30.7848 35.2476 30.6658 35.3395 30.5715 35.4552C30.4765 35.5734 30.4064 35.7117 30.3593 35.8732C30.3111 36.0358 30.2891 36.2147 30.2891 36.4051C30.2891 36.5976 30.314 36.7717 30.3647 36.9324C30.41 37.0942 30.4875 37.2324 30.5862 37.3515C30.6823 37.4708 30.8014 37.5637 30.9419 37.6323C31.0804 37.6983 31.2419 37.7308 31.423 37.7308C31.6002 37.7308 31.7628 37.7011 31.9023 37.6351C32.0434 37.5728 32.1599 37.4789 32.2522 37.3633C32.3502 37.2496 32.4229 37.1104 32.47 36.9488C32.5182 36.7888 32.5402 36.613 32.5402 36.4215ZM33.182 36.4133C33.182 36.6987 33.1377 36.9559 33.0501 37.1907C32.9585 37.421 32.8339 37.6207 32.6761 37.7858C32.5182 37.9512 32.3268 38.0802 32.1081 38.1706C31.8892 38.261 31.6511 38.3078 31.3979 38.3078C31.1356 38.3078 30.9022 38.261 30.687 38.1706C30.4747 38.0802 30.2899 37.9512 30.1365 37.7912C29.9823 37.6279 29.8643 37.4282 29.7738 37.1925C29.6887 36.9578 29.6462 36.6987 29.6462 36.4133C29.6462 36.1289 29.6887 35.8706 29.7792 35.6377C29.868 35.4037 29.9944 35.2023 30.1533 35.0362C30.3111 34.8682 30.4985 34.7381 30.7184 34.6488C30.9401 34.5575 31.1764 34.5114 31.4369 34.5114C31.6953 34.5114 31.9345 34.5575 32.1468 34.6488C32.3629 34.7381 32.5457 34.8654 32.6981 35.0315C32.8525 35.1987 32.9742 35.3966 33.0582 35.6285C33.1404 35.8625 33.182 36.1215 33.182 36.4133Z" fill="#3C5976"/>
<path d="M36.8974 37.1807C36.8974 37.3515 36.8642 37.5066 36.7987 37.643C36.7275 37.7802 36.6325 37.8984 36.5095 38.0006C36.3859 38.1027 36.2446 38.1775 36.0765 38.2318C35.9111 38.2878 35.7255 38.3131 35.526 38.3131C35.3054 38.3131 35.08 38.285 34.852 38.2228C34.623 38.1677 34.4254 38.0838 34.2566 37.9816L34.4217 37.3983C34.5759 37.5022 34.7542 37.5826 34.9602 37.643C35.1614 37.7034 35.3562 37.7306 35.5417 37.7306C35.7468 37.7306 35.9187 37.688 36.059 37.6005C36.1956 37.5122 36.265 37.3883 36.265 37.2294C36.265 37.141 36.2391 37.066 36.1864 37.001C36.1412 36.9404 36.0737 36.8881 35.9933 36.8428C35.9168 36.8013 35.8245 36.7624 35.7229 36.731C35.6177 36.6995 35.5132 36.6687 35.4081 36.6362C35.2795 36.602 35.1531 36.5584 35.023 36.5051C34.8918 36.4527 34.7764 36.3895 34.673 36.3083C34.5696 36.227 34.4893 36.1304 34.4217 36.0121C34.36 35.8975 34.3293 35.7592 34.3293 35.5996C34.3293 35.4316 34.3626 35.2834 34.4254 35.1497C34.493 35.0205 34.5872 34.9058 34.7052 34.8139C34.8207 34.719 34.9619 34.6485 35.1216 34.5979C35.2795 34.5474 35.4496 34.5193 35.6294 34.5193C35.8401 34.5193 36.048 34.5429 36.2493 34.5882C36.4514 34.636 36.6361 34.7 36.8042 34.7858L36.6369 35.3646C36.4856 35.2816 36.3092 35.2174 36.119 35.1695C35.9232 35.1254 35.7514 35.1009 35.5972 35.1009C35.4006 35.1009 35.2455 35.1398 35.1272 35.2138C35.0146 35.2888 34.9565 35.3999 34.9565 35.5442C34.9565 35.6256 34.9766 35.6988 35.023 35.7603C35.0672 35.8253 35.1272 35.8776 35.2075 35.9172C35.2795 35.9579 35.3719 35.9958 35.4745 36.0257C35.5787 36.0572 35.686 36.0879 35.7956 36.1179C35.9279 36.1548 36.059 36.199 36.1928 36.2505C36.3249 36.3012 36.443 36.368 36.5437 36.4473C36.6471 36.5295 36.733 36.628 36.8014 36.7481C36.8678 36.8656 36.8974 37.0118 36.8974 37.1807Z" fill="#3C5976"/>
<path d="M38.2185 38.1895V34.6199L38.8778 34.5196V38.1895H38.2185ZM38.9739 33.3945C38.9739 33.5118 38.937 33.6183 38.8658 33.7122C38.8001 33.8062 38.6923 33.8522 38.5454 33.8522C38.3949 33.8522 38.2886 33.8062 38.2185 33.7122C38.1473 33.6183 38.1169 33.5118 38.1169 33.3945C38.1169 33.2752 38.1473 33.1688 38.2185 33.0766C38.2886 32.9817 38.3949 32.9355 38.5454 32.9355C38.6923 32.9355 38.8001 32.9817 38.8658 33.0766C38.937 33.1688 38.9739 33.2752 38.9739 33.3945Z" fill="#3C5976"/>
<path d="M42.4467 38.1524C42.1742 38.2538 41.9002 38.3088 41.6304 38.3088C41.2759 38.3088 41.0089 38.2174 40.8288 38.0412C40.648 37.8662 40.5648 37.5854 40.575 37.1981L40.6305 35.2094L40.0266 35.1697L40.0515 34.7678L40.6535 34.5881L40.671 33.8207H41.2979L41.2741 34.6352H42.4088L42.3839 35.2094H41.2489L41.1945 37.2206C41.1835 37.5582 41.3414 37.7254 41.6701 37.7254C41.7808 37.7254 41.8936 37.7119 42.0044 37.6911C42.1153 37.6675 42.2224 37.635 42.3277 37.5926C42.3277 37.5926 42.3405 37.6207 42.3506 37.6765C42.3609 37.7362 42.3737 37.7986 42.3942 37.8726C42.4125 37.9555 42.4311 38.0487 42.4467 38.1524Z" fill="#3C5976"/>
<path d="M43.6714 38.1895V34.6199L44.3316 34.5196V38.1895H43.6714ZM44.424 33.3945C44.424 33.5118 44.389 33.6183 44.3195 33.7122C44.2531 33.8062 44.145 33.8522 43.9982 33.8522C43.8458 33.8522 43.7406 33.8062 43.6714 33.7122C43.601 33.6183 43.5688 33.5118 43.5688 33.3945C43.5688 33.2752 43.601 33.1688 43.6714 33.0766C43.7406 32.9817 43.8458 32.9355 43.9982 32.9355C44.145 32.9355 44.2531 32.9817 44.3195 33.0766C44.389 33.1688 44.424 33.2752 44.424 33.3945Z" fill="#3C5976"/>
<path d="M47.5001 38.1966H46.8973L45.4595 34.636H46.1587L47.2213 37.3993L48.238 34.636H48.9277L47.5001 38.1966Z" fill="#3C5976"/>
<path d="M52.247 36.0024V35.9481C52.247 35.6863 52.1798 35.4759 52.0458 35.3161C51.9157 35.1571 51.7052 35.0796 51.4197 35.0796C51.2665 35.0796 51.127 35.1058 51.0032 35.1571C50.8804 35.214 50.7745 35.2836 50.6857 35.3758C50.5988 35.4651 50.5316 35.5655 50.4807 35.6748C50.429 35.7866 50.3975 35.9003 50.3811 36.0188L52.247 36.0024ZM50.3496 36.5218C50.3533 36.6969 50.3873 36.8558 50.4502 36.9994C50.5085 37.1448 50.5886 37.2667 50.6948 37.3732C50.8001 37.4788 50.9231 37.5611 51.067 37.6207C51.2147 37.6785 51.3728 37.7093 51.5463 37.7093C51.7375 37.7093 51.9314 37.6857 52.1216 37.6361C52.3146 37.589 52.4863 37.5185 52.6349 37.421L52.7551 38.0126C52.5896 38.1101 52.4033 38.1816 52.1963 38.232C51.9858 38.2816 51.766 38.308 51.5333 38.308C51.2574 38.308 51.0079 38.2609 50.7807 38.1706C50.5553 38.0805 50.3635 37.9511 50.2036 37.7858C50.0431 37.6207 49.9138 37.4246 49.8233 37.1971C49.7374 36.9687 49.6892 36.7204 49.6892 36.4529C49.6892 36.1642 49.7374 35.9003 49.8287 35.6655C49.923 35.428 50.0486 35.2258 50.2054 35.056C50.3643 34.8854 50.5553 34.7517 50.7745 34.6595C50.9959 34.5649 51.2278 34.5187 51.4843 34.5187C51.9285 34.5187 52.2711 34.6452 52.513 34.8953C52.7522 35.1472 52.8732 35.4833 52.8732 35.9085C52.8732 36.0071 52.8648 36.1053 52.853 36.2064C52.8417 36.3086 52.8206 36.3971 52.7928 36.4757H52.4125H52.019C51.8733 36.4757 51.7265 36.4764 51.573 36.4819C51.2121 36.4882 50.803 36.4918 50.3496 36.4918V36.5218Z" fill="#3C5976"/>
<path d="M56.8074 37.4768C57.0253 37.6476 57.2921 37.7308 57.6153 37.7308C57.7983 37.7308 57.9635 37.6973 58.103 37.6276C58.2461 37.5582 58.3671 37.4651 58.4639 37.3451C58.5619 37.226 58.6357 37.0878 58.6846 36.927C58.7354 36.767 58.7605 36.5973 58.7605 36.4158C58.7605 36.0257 58.6645 35.7088 58.476 35.4723C58.2875 35.2348 58.0226 35.1165 57.6865 35.1165C57.5192 35.1165 57.3604 35.149 57.2109 35.2105C57.0622 35.2726 56.9322 35.3538 56.8074 35.4588V37.4768ZM57.2515 34.6504C57.4151 34.561 57.6051 34.5195 57.8221 34.5195C58.0771 34.5195 58.3024 34.5656 58.5008 34.6631C58.7014 34.7579 58.8712 34.8915 59.0125 35.0576C59.1492 35.2265 59.2562 35.4252 59.3283 35.652C59.3995 35.8813 59.4345 36.1286 59.4345 36.3968C59.4345 36.667 59.3911 36.9181 59.2997 37.15C59.212 37.3829 59.0863 37.5854 58.9202 37.7559C58.7584 37.9266 58.5647 38.0612 58.3339 38.1577C58.1103 38.2563 57.8609 38.3085 57.5913 38.3085C57.4853 38.3085 57.3604 38.2977 57.2109 38.2842C57.0586 38.2681 56.9264 38.2453 56.8074 38.2128V40H56.1509V34.6196L56.8074 34.5195V34.9618C56.9403 34.8436 57.0864 34.7399 57.2515 34.6504Z" fill="#8FC05B"/>
<path d="M63.4948 36.4215C63.4948 36.2272 63.4681 36.0511 63.4199 35.8885C63.3673 35.7278 63.2964 35.5852 63.1974 35.4669C63.1006 35.3487 62.9804 35.253 62.8431 35.1861C62.7006 35.1201 62.5392 35.0858 62.3609 35.0858C62.1827 35.0858 62.0183 35.1193 61.8809 35.1816C61.7413 35.2476 61.623 35.3395 61.528 35.4552C61.4319 35.5734 61.3629 35.7117 61.3147 35.8732C61.2676 36.0358 61.2445 36.2147 61.2445 36.4051C61.2445 36.5976 61.2687 36.7717 61.3175 36.9324C61.3654 37.0942 61.4422 37.2324 61.5401 37.3515C61.6361 37.4708 61.757 37.5637 61.8956 37.6323C62.0376 37.6983 62.1983 37.7308 62.3755 37.7308C62.5575 37.7308 62.7145 37.7011 62.8587 37.6351C62.9973 37.5728 63.1134 37.4789 63.2114 37.3633C63.3056 37.2496 63.3768 37.1104 63.4239 36.9488C63.4689 36.7888 63.4948 36.613 63.4948 36.4215ZM64.1395 36.4133C64.1395 36.6987 64.0924 36.9559 64.0055 37.1907C63.9141 37.421 63.7904 37.6207 63.6325 37.7858C63.4689 37.9512 63.2833 38.0802 63.0627 38.1706C62.8449 38.261 62.6065 38.3078 62.3554 38.3078C62.0942 38.3078 61.8568 38.261 61.6443 38.1706C61.4283 38.0802 61.2445 37.9512 61.0922 37.7912C60.938 37.6279 60.8171 37.4282 60.732 37.1925C60.6433 36.9578 60.5962 36.6987 60.5962 36.4133C60.5962 36.1289 60.6452 35.8706 60.7376 35.6377C60.8244 35.4037 60.949 35.2023 61.1068 35.0362C61.2676 34.8682 61.4532 34.7381 61.6748 34.6488C61.8937 34.5575 62.1329 34.5114 62.3952 34.5114C62.6536 34.5114 62.8891 34.5575 63.1015 34.6488C63.3194 34.7381 63.5014 34.8654 63.6537 35.0315C63.8071 35.1987 63.928 35.3966 64.0128 35.6285C64.0969 35.8625 64.1395 36.1215 64.1395 36.4133Z" fill="#8FC05B"/>
<path d="M66.118 38.2061L64.9988 34.6355H65.6979L66.467 37.2743L67.3092 34.6501H67.9029L68.8308 37.2815L69.4967 34.6355H70.2197L69.1274 38.2061H68.5298L67.6048 35.5531L66.7153 38.2061H66.118Z" fill="#8FC05B"/>
<path d="M73.6217 36.0024V35.9481C73.6217 35.6863 73.5552 35.4759 73.423 35.3161C73.2911 35.1571 73.0815 35.0796 72.7969 35.0796C72.6428 35.0796 72.5025 35.1058 72.3786 35.1571C72.2559 35.214 72.1489 35.2836 72.0619 35.3758C71.9743 35.4651 71.907 35.5655 71.8551 35.6748C71.8026 35.7866 71.7719 35.9003 71.7562 36.0188L73.6217 36.0024ZM71.7251 36.5218C71.7295 36.6969 71.762 36.8558 71.8256 36.9994C71.8847 37.1448 71.9677 37.2667 72.0684 37.3732C72.1737 37.4788 72.2957 37.5611 72.4425 37.6207C72.5883 37.6785 72.7462 37.7093 72.9263 37.7093C73.1147 37.7093 73.3069 37.6857 73.4987 37.6361C73.6908 37.589 73.8625 37.5185 74.0122 37.421L74.1285 38.0126C73.9641 38.1101 73.7803 38.1816 73.5691 38.232C73.3613 38.2816 73.1406 38.308 72.9087 38.308C72.6325 38.308 72.3834 38.2609 72.158 38.1706C71.9326 38.0805 71.7387 37.9511 71.5772 37.7858C71.4194 37.6207 71.2919 37.4246 71.2031 37.1971C71.111 36.9687 71.0647 36.7204 71.0647 36.4529C71.0647 36.1642 71.1118 35.9003 71.2079 35.6655C71.2955 35.428 71.4248 35.2258 71.5827 35.056C71.7407 34.8854 71.9289 34.7517 72.1489 34.6595C72.3695 34.5649 72.6077 34.5187 72.859 34.5187C73.3032 34.5187 73.6474 34.6452 73.8866 34.8953C74.1258 35.1472 74.2494 35.4833 74.2494 35.9085C74.2494 36.0071 74.2413 36.1053 74.2292 36.2064C74.2182 36.3086 74.196 36.3971 74.1693 36.4757H73.7898H73.3927C73.2521 36.4757 73.0979 36.4764 72.9485 36.4819C72.5883 36.4882 72.1802 36.4918 71.7251 36.4918V36.5218Z" fill="#8FC05B"/>
<path d="M76.2672 38.1895H75.606V34.6199L76.2672 34.5195V35.15C76.3938 34.9521 76.5378 34.7986 76.6949 34.6849C76.8538 34.5756 77.0493 34.5195 77.2819 34.5195C77.5416 34.5195 77.7667 34.5792 77.9662 34.6975L77.7992 35.2954C77.6976 35.2376 77.5979 35.1987 77.499 35.1697C77.4021 35.1444 77.3078 35.1318 77.2202 35.1318C77.0448 35.1318 76.8757 35.1951 76.7132 35.3161C76.5553 35.4352 76.4038 35.6205 76.2672 35.8706V38.1895Z" fill="#8FC05B"/>
<path d="M36.4981 6.6593V4.16063H33.9117V6.6593H32.2734V0.36145H33.9117V2.81066H36.4981V0.36145H38.1361V6.6593H36.4981Z" fill="#3C5976"/>
<path d="M39.4746 6.6593V0.36145H44.184V1.65208H41.0823V2.86108H43.5754V4.1407H41.0823V5.36963H44.184V6.6593H39.4746Z" fill="#3C5976"/>
<path d="M47.7276 3.39454C48.4294 3.34412 48.8107 3.06227 48.8107 2.45716C48.8107 1.90369 48.4192 1.6319 47.5946 1.6319H46.9028V3.41447L47.7276 3.39454ZM46.9353 6.65905H45.2952V0.362244H47.8826C49.5936 0.362244 50.4885 1.13786 50.4885 2.35709C50.4885 3.20306 50.036 3.84785 49.1699 4.17042L50.8192 6.65905H48.9741L47.6868 4.54333L46.9353 4.60381V6.65905Z" fill="#3C5976"/>
<path d="M54.6305 1.50027C53.5382 1.50027 52.9213 2.30691 52.9213 3.48515C52.9213 4.69433 53.5602 5.52064 54.6627 5.52064C55.7451 5.52064 56.3729 4.70438 56.3729 3.52579C56.3729 2.31661 55.7228 1.50027 54.6305 1.50027ZM54.6305 6.81101C52.7255 6.81101 51.272 5.65173 51.272 3.52579C51.272 1.53103 52.7338 0.2099 54.6517 0.2099C56.5687 0.2099 58.0212 1.35948 58.0212 3.48515C58.0212 5.48 56.5476 6.81101 54.6305 6.81101Z" fill="#3C5976"/>
<path d="M32.2734 8.58344H36.8784V9.90273H33.8902V11.2024H36.2706V12.5134H33.8902V14.8812H32.2734V8.58344Z" fill="#3C5976"/>
<path d="M40.639 15.0318C38.9593 15.0318 37.8069 14.2262 37.8069 12.4536V8.58319H39.434V12.2406C39.434 13.1877 39.8237 13.6817 40.6796 13.6817C41.4533 13.6817 41.8541 13.2791 41.8541 12.3018V8.58319H43.484V12.3118C43.484 14.1358 42.3702 15.0318 40.639 15.0318Z" fill="#3C5976"/>
<path d="M48.0161 9.92294V14.8807H46.378V9.92294H44.3298V8.58398H50.0679V9.92294H48.0161Z" fill="#3C5976"/>
<path d="M53.7649 15.0318C52.086 15.0318 50.9316 14.2262 50.9316 12.4536V8.58319H52.5598V12.2406C52.5598 13.1877 52.9521 13.6817 53.8072 13.6817C54.5784 13.6817 54.981 13.2791 54.981 12.3018V8.58319H56.6087V12.3118C56.6087 14.1358 55.4971 15.0318 53.7649 15.0318Z" fill="#3C5976"/>
<path d="M60.3278 11.6163C61.0295 11.5656 61.4109 11.284 61.4109 10.6799C61.4109 10.1252 61.0193 9.85364 60.1938 9.85364H59.5051V11.6359L60.3278 11.6163ZM59.5365 14.8807H57.8975V8.58398H60.4838C62.1941 8.58398 63.0898 9.35855 63.0898 10.5786C63.0898 11.4248 62.6372 12.0696 61.7711 12.3919L63.4201 14.8807H61.5761L60.2881 12.764L59.5365 12.8255V14.8807Z" fill="#3C5976"/>
<path d="M64.2549 14.881V8.58319H68.9642V9.87277H65.8618V11.0818H68.355V12.3614H65.8618V13.5914H68.9642V14.881H64.2549Z" fill="#3C5976"/>
<path d="M32.2734 23.1024V16.8049H36.9807V18.0942H33.88V19.3046H36.3742V20.5831H33.88V21.8131H36.9807V23.1024H32.2734Z" fill="#3C5976"/>
<path d="M42.5452 16.8052H44.0805V23.1624H42.3392L39.6308 19.0219V23.1029H38.0933V16.8052H39.8664L42.5452 20.8959V16.8052Z" fill="#3C5976"/>
<path d="M45.4202 23.1024V16.8049H50.1285V18.0942H47.0278V19.3046H49.52V20.5831H47.0278V21.8131H50.1285V23.1024H45.4202Z" fill="#3C5976"/>
<path d="M53.673 19.8378C54.3747 19.7874 54.7553 19.5055 54.7553 18.9014C54.7553 18.3469 54.3627 18.0751 53.5381 18.0751H52.8484V19.8577L53.673 19.8378ZM52.8807 23.1022H51.2407V16.8055H53.8282C55.5374 16.8055 56.4339 17.5814 56.4339 18.8002C56.4339 19.6466 55.9816 20.2911 55.1154 20.6137L56.7645 23.1022H54.9197L53.6313 20.9855L52.8807 21.047V23.1022Z" fill="#3C5976"/>
<path d="M60.6796 23.2533C58.6186 23.2533 57.2188 22.055 57.2188 19.9791C57.2188 17.9138 58.5788 16.6531 60.6906 16.6531C61.5144 16.6531 62.4941 16.8354 63.1118 17.1976L62.5964 18.5376C61.9881 18.1954 61.3583 18.0139 60.7414 18.0139C59.5863 18.0139 58.8456 18.7698 58.8456 19.9384C58.8456 21.198 59.495 21.9439 60.721 21.9439C61.0924 21.9439 61.4837 21.8625 61.7525 21.7517V20.8261H60.1653V19.5554H63.2356V22.6698C62.5336 23.0428 61.6186 23.2533 60.6796 23.2533Z" fill="#3C5976"/>
<path d="M64.4307 16.8047H66.0677V23.1025H64.4307V16.8047Z" fill="#3C5976"/>
<path d="M67.4282 23.1024V16.8049H72.1377V18.0942H69.037V19.3046H71.5283V20.5831H69.037V21.8131H72.1377V23.1024H67.4282Z" fill="#3C5976"/>
<path d="M76.3719 21.3387C76.3719 20.9162 75.9084 20.7754 75.0525 20.5424C74.1162 20.2913 72.9823 19.8676 72.9823 18.6091C72.9823 17.4395 73.8584 16.6639 75.454 16.6639C76.4662 16.6639 77.2483 16.8851 77.865 17.2183L77.5465 18.5376C76.9075 18.2053 76.1042 17.984 75.4652 17.984C74.8983 17.984 74.6203 18.1754 74.6203 18.5177C74.6203 18.9313 75.2066 19.0928 75.9796 19.3043C76.9685 19.5651 78.0001 20.0095 78.0001 21.2077C78.0001 22.408 77.0517 23.2533 75.3618 23.2533C74.4052 23.2533 73.4752 23.0121 72.8787 22.6788L73.1891 21.3496C73.8272 21.682 74.5991 21.9329 75.3933 21.9329C75.9694 21.9329 76.3719 21.7225 76.3719 21.3387Z" fill="#3C5976"/>
<path d="M73.3417 1.65515C73.5573 1.65069 73.6541 1.56033 73.6541 1.40573C73.6541 1.24597 73.5527 1.17335 73.337 1.17335H73.1214V1.65952L73.3417 1.65515ZM73.126 2.44746H72.7249V0.876036H73.4028C73.8257 0.876036 74.0589 1.06979 74.0589 1.37995C74.0589 1.59074 73.9538 1.75434 73.7509 1.83195L74.1337 2.44746H73.6943L73.3809 1.9141L73.126 1.92668V2.44746ZM73.3552 0.303433C72.5887 0.303433 71.9641 0.927773 71.9641 1.68093C71.9641 2.43488 72.5887 3.05485 73.3552 3.05485C74.1247 3.05485 74.7503 2.43488 74.7503 1.68093C74.7503 0.927773 74.1247 0.303433 73.3552 0.303433ZM71.8225 1.68093C71.8225 0.850168 72.5095 0.173828 73.3552 0.173828C74.2049 0.173828 74.8911 0.850168 74.8911 1.68093C74.8911 2.50741 74.2049 3.18 73.3552 3.18C72.5095 3.18 71.8225 2.50741 71.8225 1.68093Z" fill="#3C5976"/>
</g>
<defs>
<clipPath id="clip0_2_10">
<rect width="78" height="40" fill="white"/>
</clipPath>
</defs>
</svg>
